{"accessors" : [{"bufferView" : 0, "byteOffset" : 0, "componentType" : 5123, "count" : 8466, "type" : "SCALAR", "max" : [3238], "min" : [0]}, {"bufferView" : 1, "byteOffset" : 0, "componentType" : 5126, "count" : 3239, "type" : "VEC3", "max" : [1086.71496582031, 0, 400], "min" : [-320, -1200, 0]}, {"bufferView" : 1, "byteOffset" : 12, "componentType" : 5126, "count" : 3239, "type" : "VEC3", "max" : [1.00000441074371, 1.00000441074371, 1.00000441074371], "min" : [-1.00000441074371, -1.00000441074371, -1.00000441074371]}], "asset" : {"generator" : "Aspose.3D 20.2.1", "version" : "2.0"}, "buffers" : [{"uri" : "buffer.bin", "byteLength" : 94676}], "bufferViews" : [{"buffer" : 0, "byteOffset" : 0, "byteLength" : 16932, "target" : 34963}, {"buffer" : 0, "byteOffset" : 16936, "byteLength" : 77736, "byteStride" : 24, "target" : 34962}], "meshes" : [{"primitives" : [{"attributes" : {"POSITION" : 1, "NORMAL" : 2}, "indices" : 0, "mode" : 4}]}], "nodes" : [{"mesh" : 0, "name" : ""}], "scene" : 0, "scenes" : [{"nodes" : [0]}]}